/* XPM */
static char *_e86d8c88da44bdc9e5bae9ff35968fc[] = {
/* columns rows colors chars-per-pixel */
"64 64 111 1 ",
"   c black",
".  c #28200C",
"X  c #382C14",
"o  c #202020",
"O  c #2C2C2C",
"+  c gray22",
"@  c #3A3A3A",
"#  c #580000",
"$  c #640000",
"%  c #700000",
"&  c #7C0000",
"*  c #4D2E00",
"=  c #403018",
"-  c #483818",
";  c #543C1C",
":  c #365722",
">  c #5C4020",
",  c #6C4824",
"<  c #744C28",
"1  c #000040",
"2  c #00004C",
"3  c #000058",
"4  c #000064",
"5  c #000070",
"6  c #00007C",
"7  c black",
"8  c #600064",
"9  c #484848",
"0  c gray33",
"q  c #626262",
"w  c #646464",
"e  c gray44",
"r  c #7C7C7C",
"t  c #880000",
"y  c #980000",
"u  c #A40000",
"i  c #A80000",
"p  c #B00000",
"a  c #BC0000",
"s  c #972000",
"d  c #C80000",
"f  c #D40000",
"g  c #E00000",
"h  c #EC0000",
"j  c #FC0000",
"k  c #FC2020",
"l  c #9C4C00",
"z  c #B45400",
"x  c #80502C",
"c  c #885830",
"v  c #905C34",
"b  c #9C6038",
"n  c #A0643C",
"m  c #FF5706",
"M  c #CC6000",
"N  c #C27500",
"B  c #FC7800",
"V  c #A86840",
"C  c #B47044",
"Z  c #BC7848",
"A  c #FC4040",
"S  c #FC5454",
"D  c #FC5C5C",
"F  c #C87C4C",
"G  c #FC7C7C",
"H  c #F7B10B",
"J  c #FC8820",
"K  c #FCF400",
"L  c #D08050",
"P  c #DC8854",
"I  c #FC9840",
"U  c #E88C58",
"Y  c #F0945C",
"T  c #FCA85C",
"R  c #FC9C60",
"E  c #FCA470",
"W  c #000088",
"Q  c #000098",
"!  c #0000A4",
"~  c #0000A8",
"^  c #0000B0",
"/  c #0000BC",
"(  c #5B0E8F",
")  c #0000C8",
"_  c #0000D4",
"`  c #0000E0",
"'  c #0000EC",
"]  c #0000FC",
"[  c #0004FC",
"{  c #7A12C0",
"}  c None",
"|  c #9115E3",
" . c #808080",
".. c gray55",
"X. c #989898",
"o. c gray66",
"O. c #B1B1B1",
"+. c #B4B4B4",
"@. c #FCB080",
"#. c #FCB890",
"$. c #FCBC9C",
"%. c #FCC4A4",
"&. c #FCD4BC",
"*. c #C0C0C0",
"=. c #D0D0D0",
"-. c gainsboro",
";. c #FCD8C4",
":. c #ECECEC",
">. c gray97",
",. c gray99",
"<. c white",
/* pixels */
"} } } } } } } } } } } } } } } } } } } } } } } } } } } } } } } } ",
"} } } } } } } } } } } } } } } } } } } } } } } } } } } } } } } } ",
"} } } } } } } } } } } } } } } } } } } } } } } } } } } } } } } } ",
"} } } } } } } } } } } } } } } } } } } } } } } } } } } } } } } } ",
"} } } } } } } } } } } } } } } } } } } } } } } } } } } } } } } } ",
"} } } } } } } } } } } } } } } } } } } } } } } } } } } } } } } } ",
"} } } } } } } } } } } } } } } } } } } } } } } } } } } } } } } } ",
"} } } } } } } } } } } } } } } } } } } } } } } } } } } } } } } } ",
"} } } } } } } } } } } } } } } } } } } } } } } } } } } } } } } } ",
"} } } } } } } } } } } } } } } } } } } } } } } } } } } } } } } } ",
"} } } } } } } } } } } } } } } } } } } } } } } } } } } } } } } } ",
"} } } } } } } } } } } } } } } } } } } } } } } } } } } } } } } } ",
"} } } } } } } } } } } } } } } } } } } } } } } } } } } } } } } } ",
"} } } } } } } } } } } } } } } } } } } } } } } } } } } } } } } } ",
"} } } } } } } } } } } } } } } } } } } } } } } } } } } } } } } } ",
"} } } } } } } } } } } } } } } } } } } } } } } } } } } } } } } } ",
"} } } } } } } } } } } } } } o.o...r 0 + } } } } } } } } } } } } ",
"} } } } } } } } } } } } } o.o.w e 0 9 O O } } } } } } } } } } } ",
"} } } } } } } } } } } } } ..r e e 0 0 0 O } } } } } } } } } } } ",
"} } } } } } } } } } } } + *.=.*.o...e 0 0 O } } } } } } } } } } ",
"} } } } } } } } } } } } r o - , c c , - o o } } } } } } } } } } ",
"} } } } } } } } } } } r 9   V [ @.Z [ V   o o } } } } } } } } } ",
"} } } } } } } } } } }   o < Y $.Z V $.Y < o o } } } } } } } } } ",
"} } } } } } } } } } } } o - L @.Y Y @.L - o } } } } } } } } } } ",
"} } } } } } } } } } } } } - b C - - C b - } } } } } } } } } } } ",
"} } } } } } } } } } } } }   b U @.@.U -   } } } } } } } } } } } ",
"} } } } } } } } } } } }       , n n n       } } } } } } } } } } ",
"} } } } } } } } } C E w   ,.e   , P   e =.  v v v } } } } } } } ",
"} } } } } } } } E R E w + e =.        =.e C L L L V } } } } } } ",
"} } } } } } } E Y L R P w x   9 x = x   C Y Y Y F L V } } } } } ",
"} } } } } } E Y L b P R + w x R R V R R R R R F L U L } } } } } ",
"} } } } } E Y L V x ; P R + + R R < R b b c < F < F U L } } } } ",
"} } } } E Y L V < X X n C L o + L = R b R R ; x < V L U V } } } ",
"} } } } L b , x X X } < n L L o + + L c v v = = . v L U L , } } ",
"} } } Y E E Z X } } } > < C L L   o + C < = x = . v V C U V } } ",
"} } } Y E V x X } } } } > n L c L     o + C x . X , X x V L , } ",
"} } } n E E L b X } } } - n C c n   L       - . } . > U U L , } ",
"} } } v Y ; ; ;   } }   o o + + -.+.X.+ O O o   } } - , v Z , } ",
"} } } } ; C Y @.U > Y Y x X O O r r 9 o o o     } } - V L Z } } ",
"} } } } < C @.v o 9 > C Y C = Z x   C b C n - > = } . x v x } } ",
"} } } } } < Y L 9 o.B > x L C = x   C L L C x = = } . - - n } } ",
"} } } } } } < < o e o.M > > v v x   b L L C v , = } @.Y V - } } ",
"} } } } } } } } } o l l M = . . >   b L L C n , = } X b L } } } ",
"} } } } } } } } } } o l l = > = .   b L L C n , = - L L } } } } ",
"} } } } } } } } } } } X > = > > X X X X X X X X . } } } } } } } ",
"} } } } } } } } } } } Z b V b x > X x x x x > > . } } } } } } } ",
"} } } } } } } } } } Z Y E Y V b < X < U L n n > . } } } } } } } ",
"} } } } } } } } } } Y Y E Y L V X } X U L L n n . } } } } } } } ",
"} } } } } } } } } Z Y E Y L V x X } - n E L n ; . } } } } } } } ",
"} } } } } } } } } Z Y %.L x x X X } X c E L n , = } } } } } } } ",
"} } } } } } } } Z Y %.@.E V ; X } } x Z U E n x . } } } } } } } ",
"} } } } } } } } F Y @.b V E x = } } X - @.#.E F ; . } } } } } } ",
"} } } } } } } } F Y E Y x = = } } } } - Z V v x ; . } } } } } } ",
"} } } } } } } } Y E Y L V x X } } } X v U E L n ; . } } } } } } ",
"} } } } } } } } x Z b x ; . X } } } X - v V c , = . } } } } } } ",
"} } } } } } } }             } } } } }             } } } } } } } ",
"} } } } } } } }   ~ 2 o o   } } } } }   o o o o   } } } } } } } ",
"} } } } } } } }   6 2 o o   } } } } }   ~ 5 o o   } } } } } } } ",
"} } } } } } }   ~ / W 1   } } } } } }   1 ~ 2 o   } } } } } } } ",
"} } } } } } }   W 5 o     } } } } } } }   ~ 2 o   } } } } } } } ",
"} } } } } } }   ~ 2 o o } } } } } } } }   ~ 5   } } } } } } } } ",
"} } } } } }   ~ _ ! 4 1   } } } } } }   1 ~ _ 5   } } } } } } } ",
"} } } } }   3 W W 2 1 o   } } } } } }   4 2 ! 4 1   } } } } } } ",
"} } } } }   o o o o o o } } } } } } } } o o o o o   } } } } } } "
};
