/* XPM */
static char *_3ee5e999ac54525ad04bab45a825412vnDMtOEK2wb7Q1dY[] = {
/* columns rows colors chars-per-pixel */
"64 64 185 2 ",
"   c None",
".  c #000000",
"X  c #07090A",
"o  c #0B0B0C",
"O  c #080708",
"+  c #15110E",
"@  c #0F0F10",
"#  c #0E1415",
"$  c #141515",
"%  c #12191B",
"&  c #1B1B1B",
"*  c #171818",
"=  c #201C18",
"-  c #26211D",
";  c #28221E",
":  c #1A1C21",
">  c #161F21",
",  c #1B2629",
"<  c #242425",
"1  c #24262B",
"2  c #27292C",
"3  c #2A2B2B",
"4  c #2C2621",
"5  c #332D27",
"6  c #2D2E32",
"7  c #202D30",
"8  c #2F3233",
"9  c #26363A",
"0  c #273B3E",
"q  c #283439",
"w  c #323335",
"e  c #3B3C3C",
"r  c #35373A",
"t  c #584536",
"y  c #54493F",
"u  c #2B3E42",
"i  c #333741",
"p  c #2D4246",
"a  c #2F474B",
"s  c #33494D",
"d  c #394448",
"f  c #3A4B52",
"g  c #3B5358",
"h  c #424345",
"j  c #44464A",
"k  c #444949",
"l  c #4B4C4C",
"z  c #5C5146",
"x  c #434956",
"c  c #464C59",
"v  c #4E5355",
"b  c #505555",
"n  c #555B5D",
"m  c #5A5A5B",
"M  c #544940",
"N  c #65584D",
"B  c #6E6053",
"V  c #4E5565",
"C  c #5A5D63",
"Z  c #515767",
"A  c #47676D",
"S  c #596060",
"D  c #5F6368",
"F  c #4D6E75",
"G  c #466B70",
"H  c #4D7077",
"J  c #4F797E",
"K  c #50797F",
"L  c #66696F",
"P  c #62666B",
"I  c #676A70",
"U  c #696C72",
"Y  c #626B7E",
"T  c #727272",
"R  c gray49",
"E  c #73777D",
"W  c #6C7076",
"Q  c #847363",
"!  c #917E6F",
"~  c #A27F63",
"^  c #9F8A79",
"/  c #A98467",
"(  c #A7886F",
")  c #AC937E",
"_  c #C69B79",
"`  c #D0A37F",
"'  c #567B83",
"]  c #666F83",
"[  c #747E95",
"{  c #687085",
"}  c #5C8C92",
"|  c #7E838C",
" . c #618993",
".. c #658E98",
"X. c #79839B",
"o. c #62939B",
"O. c #64989F",
"+. c #6E9BA6",
"@. c #6599A1",
"#. c #719FAA",
"$. c #74A4AF",
"%. c #76A6B2",
"&. c #75ABB5",
"*. c #7AB2BC",
"=. c gray52",
"-. c #81858C",
";. c #868A8E",
":. c #868B92",
">. c #898E96",
",. c #838A9A",
"<. c #8E939B",
"1. c #959595",
"2. c #90959D",
"3. c #9A9A9A",
"4. c #AB9582",
"5. c #B69F8A",
"6. c #BAA28D",
"7. c #969BA3",
"8. c #999EA7",
"9. c #9A9FA8",
"0. c #8E9AB5",
"q. c #909CB8",
"w. c #9CA1AA",
"e. c #94A0BC",
"r. c #AFAFAF",
"t. c gray64",
"y. c #A4AAB3",
"u. c #A2A7B0",
"i. c #ADB3BC",
"p. c #B6B6B6",
"a. c #BCBCBC",
"s. c #D3AA88",
"d. c #CDB29B",
"f. c #D6B599",
"g. c #DEC1A8",
"h. c #E0C3AA",
"j. c #85BBC8",
"k. c #B5BBC5",
"l. c #B1B7C1",
"z. c #A8B6D7",
"x. c #B3BED6",
"c. c #B0BEE1",
"v. c #86CBD5",
"b. c #88C6D1",
"n. c #92CDDB",
"m. c #8BD4DE",
"M. c #94D1DF",
"N. c #B8C2DC",
"B. c #B9C0CA",
"V. c #8ED7E1",
"C. c #94DBE7",
"Z. c #9BDCEB",
"A. c #96DEE9",
"S. c #B9C8EA",
"D. c #9AE1EE",
"F. c #9DE3F1",
"G. c #A3E6F6",
"H. c #A2E8F7",
"J. c #A5EAFA",
"K. c #A8EDFD",
"L. c #C2C8D3",
"P. c #C5CCD7",
"I. c #CBD2DD",
"U. c #D3D3D3",
"Y. c #DCDCDC",
"T. c #CED6E2",
"R. c #D3DAE6",
"E. c #D5DCE9",
"W. c #D4DBE7",
"Q. c #C1D2F7",
"!. c #C5D4F8",
"~. c #C9D7F8",
"^. c #CDDAF9",
"/. c #D2DFFB",
"(. c #D9E1ED",
"). c #D5E1FB",
"_. c #DAE5FC",
"`. c #DFE7F3",
"'. c #E3E3E3",
"]. c #EBEBEB",
"[. c #E1E9F5",
"{. c #E4EDFD",
"}. c #E7F0FF",
"|. c #EAF2FF",
" X c #F6F6F6",
/* pixels */
"      . . . . . . . . . .                                   . . . .                                   . . . . . . . . . .       ",
"  . . . . . . . . . . . . .                               . . . . . .                               . . . . . . . . . . . . .   ",
"  . . w b S S S S S S k . .                               . . k k . .                               . . k S S S S S S b 8 . .   ",
". . 8 S S S S S S S S k . .                           . . . . S S . . . . .                         . . k S S S S S S S S 8 . . ",
". . b S $ . . . . . . . . .                   . . . . . . . . S S . . . . . . . .                   . . . . . . . . . $ S b . . ",
". . S S . . . . . . . . .               . . . . . r L 7.k.. . S S . . B.7.U r . . . . .               . . . . . . . . . S S . . ",
". . S S . .                         . . . . j 8.(.|.|.|.|.. . S S . . |.|.|.|.(.8.h . . . .                         . . S S . . ",
". . S S . .                     . . . X U T.|.|.|.|.|.|.|.. . S S . . |.|.|.|.|.|.|.I.I O . . .                     . . S S . . ",
". . S S . .                   . . . P R.|.|.|.|.|.E.8.L h . . S S . . h I 9.E.|.|.|.|.|.R.C . . .                   . . S S . . ",
". . S S . .                 . . 2 k.|.|.|.|.(.:.w . . . . . . S S . . . . . . w >.(.|.|.|.|.l.1 . .                 . . S S . . ",
". . S S . .               . . n [.|.|.|.R.U X . . X 0 F o.. . S S . . o.H 0 X . . X U R.|.|.|.[.C . . .             . . S S . . ",
". . k k . .           . . . >.|.|.|.{.| X . . 0 } v.m.m.m.# . k k . # m.m.m.v.} 0 . . o -.{.|.|.|.:.. . .           . . k k . . ",
". . . . . .           . O 9.|.|.|.I.6 . . p &.m.m.V.C.D.G.F . . . . F G.D.C.V.m.m.&.p . . 6 I.|.|.|.8.O .           . . . . . . ",
"  . . . .           . . w.|.|.|.u.o . % @.m.m.A.G.K.K.K.K.G.F % % F G.K.K.K.K.G.A.m.m.O.% . o y.|.|.|.8.. .           . . . .   ",
"                  . . ;.|.|.|.7.. . p b.m.D.J.K.K.K.K.K.K.K.K.K.K.K.K.K.K.K.K.K.K.J.Z.m.v.s . . <.|.|.|.-.. .                   ",
"                . . C |.|.|.<.. . G m.C.J.K.K.K.K.K.K.K.K.K.K.K.K.K.K.K.K.K.K.K.K.K.K.J.C.m.G . . <.|.|.|.b . .                 ",
"              . . 1 [.|.|.u.. . J m.F.K.K.K.K.K.K.K.K.K.K.K.K.K.K.K.K.K.K.K.K.K.K.K.K.K.K.F.m.K . . y.|.|.`.< . .               ",
"              . . k.|.|.I.o . G V.H.K.K.K.K.9 . . . . . . . . . . . . . # F J.K.K.K.K.K.K.K.H.V.G . o P.|.|.l.. .               ",
"            . . C |.|.{.6 . a V.J.K.K.K.K.K.. . . . . . . . . . . . . . . . F K.K.K.K.K.K.K.K.J.V.a . 8 {.|.|.n . .             ",
"            . X W.|.|.| . % v.J.K.K.K.K.K.K.. . S S S S S S S S S S S S k . . g n.K.K.K.K.K.K.K.J.v.% . -.|.|.T.O .             ",
"          . . P |.|.R.X . @.H.K.K.K.K.K.K.K.. . S S S S S S S S S S S S S $ . . # n.K.K.K.K.K.K.K.H.O.. o W.|.|.D . .           ",
"          . . T.|.|.U . p F.K.K.K.K.K.K.K.K.. . S S S S S S S S S S S S S S v * . g K.K.K.K.K.K.K.K.F.p . U |.|.I.. .           ",
"          . d |.|.(.X . *.K.K.K.K.K.K.K.K.K.O . n S S S S S S S S S n n S S S v . # K.K.K.K.K.K.K.K.K.*.. o (.|.|.e .           ",
"        . . 7.|.|.:.. 0 J.K.K.K.K.K.K.K.K.K.7 . e S S S S S S S S l o $ S S S S . . K.K.K.K.K.K.K.K.K.J.0 . >.|.|.2.. .         ",
"        . . E.|.|.w . o.K.K.K.K.K.K.K.K.K.K.... O e n S S S n k 2 . . . h S S S . . K.K.K.K.K.K.K.K.K.K.o.. w |.|.E.. .         ",
"        . w |.|.E.. X G.K.K.K.K.K.K.K.K.G.F % . . . . . . . . . . . 4 . . . . . . . F G.K.K.K.K.K.K.K.K.F.X . E.|.|.3 .         ",
"        . U |.|.8.. u K.K.K.K.K.K.K.K.K.F . . . . . O . . . O - z 6.g.B + . . . . . . F K.K.K.K.K.K.K.K.K.u . w.|.|.:.X         ",
"      . . 2.|.|.L . ' K.K.K.K.K.K.K.K.K.% . 4.h.. . h.h.h.h.h.h.h.h.h.h.h.h.. . h.4.. % K.K.K.K.K.K.K.K.K.' . U |.|.|.|.        ",
"      . . k.|.|.h . %.K.K.K.K.K.K.K.K.K.. . h.h.. . h.h.h.h.h.h.h.h.h.h.h.h.. . h.h.. . K.K.K.K.K.K.K.K.K.$.. j |.|.|.|.        ",
"  . . . . . . . . . . % F G.K.K.K.K.K.K.% . 4.h.. . h.h.h.h.h.h.h.h.h.h.h.h.. . h.4.. % K.K.K.K.K.K.G.F % . . . . . . . . . .   ",
". . . . . . . . . . . . . F K.K.K.K.K.K.F . . . . . h.h.h.h.h.h.h.h.h.h.h.h.. . . . . H K.K.K.K.K.K.F . . . . . . . . . . . . . ",
". . k S S S S S S S S k . % K.K.K.K.K.K.G.F % . . . f.h.h.h.h.h.h.h.h.h.h.f.. . . % F G.K.K.K.K.K.K.% . k S S S S S S S S k . . ",
". . k S S S S S S S S k . % K.K.K.K.K.K.K.K.K.K., . ( h.h.5 & z z & 5 h.h.( . , K.K.K.K.K.K.K.K.K.K.% . k S S S S S S S S k . . ",
". . . . . . . . . . . . . H K.K.K.K.K.K.K.K.K.K.A . t s.g.5 . . . . 5 g.s.t . G K.K.K.K.K.K.K.K.K.K.F . . . . . . . . . . . . . ",
"  . . . . . . . . . . % F G.K.K.K.K.K.K.K.K.K.K.b.. O / s.f.) Q Q ) f.s./ O . b.K.K.K.K.K.K.K.K.K.K.G.F % . . . . . . . . . .   ",
"        /.|.|.|.h . %.K.K.K.K.K.K.K.K.K.K.K.K.K.K.A . + / ` ` ` ` ` ` / + . A K.K.K.K.K.K.K.K.K.K.K.K.K.K.$.. j |.|.l.. .       ",
"        ^.}.|.|.L . ' K.K.K.K.K.K.K.K.K.K.K.K.K.K.G.u . O t ~ _ _ ~ t O . u J.K.K.K.K.K.K.K.K.K.K.K.K.K.K.' . U |.|.>.. .       ",
"        X | |.|.8.. p K.K.K.K.K.K.K.K.K.K.K.K.K.K.K.*.. . . . . . . . . . j.K.K.K.K.K.K.K.K.K.K.K.K.K.K.K.p . w.|.|.C .         ",
"        . 2 |.|.E.. X G.K.K.K.K.K.K.K.K.K.K.K.K.K.K.G . M N - X X ; N y . G K.K.K.K.K.K.K.K.K.K.K.K.K.K.G.X . E.|.|.6 .         ",
"        . . W.|.|.w . +.K.K.K.K.K.K.K.K.K.K.K.K...% . . ! h.h.h.h.h.h.^ . . 9 &.K.K.K.K.K.K.K.K.K.K.K.K.+.. r |.|.T.. .         ",
"        . . ,.|.|.>.. p K.K.K.K.K.K.K.K.K.Z. .# . . . . O 6.h.h.h.h.d.- . . . . %  .Z.K.K.K.K.K.K.K.K.K.p . >.|.|.,.. .         ",
"          . i |.|.(.X . j.K.K.K.K.K.J.%.s . . . . < r.3 . O 6.h.h.d.- . 3 r.< . . . . s %.K.K.K.K.K.K.j.. o (.|.|.i .           ",
"          . . N.|.|.U . s K.K.K.K.M.9 . . O l R . X ].'.3 . O 5.d.; . < Y.].o . ;.l O . . 9 M.K.K.K.K.s . W |.|.x.. .           ",
"          . . Z {.|.R.o . &.K.K.n.% . $ =.'. X Xo . 3. X'.3 . O = . < Y. X1.. e  X X'.=.$ . % M.K.K.%.. o E.|.{.Z . .           ",
"            . O N.|.|.-.. > Z.J.q . r '. X X X Xm . e  X X'.& . . & '. X Xe . 3. X X X X'.r . 9 J.Z.> . ;.|.|.x.O .             ",
"            . . c _.|.{.6 . f +.. $ ]. X X X X XY.. . U.Y.b . . . . b Y.U.. X ]. X X X X X'.$ . #.f . w {.|._.x . .             ",
"              . . e.{.|.I.o . , . R ]. X X X X X X< . e X . . h R X . X e . m  X X X X X X].R . , . @ I.|.{.q.. .               ",
"                . : S.{.|.y.O . . a.Y.]. X X X X X=.. . . $ a. X XY.m . . . p. X X X X X].Y.a.. . O y.|.{.S.& .                 ",
"                . . x !.{.|.<.. . T Y.Y.'. X X X X Xo O =. X X X X X Xp.3 e  X X X X X'.Y.Y.T . . 2.|.{.!.x . .                 ",
"                  . . { ~.{.|.C . . l U.Y.Y.]. X X X X X X X X X X X X X X X X X X].Y.Y.U.l . . n |.{.~.Y . .                   ",
"  . . . .           . . X.!.{.|.E . . & t.Y.Y.Y.]. X X X X XT * * T  X X X X X].Y.Y.Y.t.& . . E |.{.!.X.. .           . . . .   ",
". . . . . .           . . X.Q._.|.i.X . . h p.Y.Y.Y.'.].].T . . . . T ].].'.Y.Y.Y.p.h . . X i.|._.Q.[ . .           . . . . . . ",
". . k k . .             . . ] Q.^.{.[.j . . . e 1.U.Y.Y.Y.$ . k k . $ Y.Y.Y.U.1.e . . . k [.{.^.Q.] . .             . . k k . . ",
". . S S . .               . . x S.Q.).|.L.6 . . . X h T 3.. . S S . . 3.T e X . . . 8 L.|.).Q.S.f . .               . . S S . . ",
". . S S . .                 . . : q.Q.!.).{.I.v o . . . . . . S S . . . . . . o v I.{.).!.Q.0.: . .                 . . S S . . ",
". . S S . .                   . . . c z.Q.Q.^._.|.L.I 6 $ . . S S . . $ 6 U L.}._.^.Q.Q.z.c . . .                   . . S S . . ",
". . S S . .                       . . O V z.Q.Q.Q.~.)._.{.. . S S . . {._./.~.Q.Q.Q.z.V O . .                       . . S S . . ",
". . S S . .                         . . . . i [ c.Q.Q.Q.Q.. . S S . . Q.Q.Q.Q.x.X.q . . . .                         . . S S . . ",
". . S S . . . . . . . . .               . . . . . 1 V [ q.. . S S . . q.[ Z 1 . . . . .               . . . . . . . . . S S . . ",
". . b S $ . . . . . . . . .                   . . . . . . . . S S . . . . . . . .                   . . . . . . . . . $ S b . . ",
". . 8 S S S S S S S S k . .                           . . . . S S . . . .                           . . k S S S S S S S S 8 . . ",
"  . . 8 b S S S S S S k . .                               . . k k . .                               . . k S S S S S S b 8 . .   ",
"  . . . . . . . . . . . . .                               . . . . . .                               . . . . . . . . . . . . .   ",
"      . . . . . . . . . .                                   . . . .                                   . . . . . . . . . .       "
};
